<svg fill="#000000" height="200px" width="200px" version="1.1" id="Layer_1"
    xmlns="http://www.w3.org/2000/svg" xmlns:xlink="http://www.w3.org/1999/xlink"
    viewBox="0 0 511.998 511.998" xml:space="preserve"><g id="SVGRepo_bgCarrier" stroke-width="0"></g>
    <g id="SVGRepo_tracerCarrier" stroke-linecap="round" stroke-linejoin="round"></g>
    <g id="SVGRepo_iconCarrier"> <g> <g> <path
        d="M400.07,174.951c25.145-10.577,51.147-21.513,87.58-57.945c3.872-3.872,3.872-10.149,0-14.021 c-3.873-3.872-10.15-3.872-14.022,0c-16.549,16.549-30.541,27.306-43.398,35.195l-6.023-21.419 c3.405-2.042,6.619-4.522,9.551-7.453h0.001c19.329-19.331,19.329-50.783-0.001-70.113c-9.764-9.764-22.62-14.588-35.444-14.487 l-4.912-17.473c-1.481-5.272-6.956-8.344-12.228-6.861c-5.271,1.482-8.343,6.956-6.86,12.228l4.562,16.227 c-5.531,2.406-10.714,5.852-15.23,10.369c-19.329,19.329-19.329,50.783,0,70.112c9.667,9.666,22.359,14.498,35.058,14.498 c2.258,0,4.516-0.16,6.758-0.467l6.898,24.533c-6.719,3.223-13.297,5.992-19.976,8.802c-20.679,8.698-41.943,17.653-69.105,40.816 l1.183-18.679c0.346-5.465-3.803-10.175-9.268-10.521c-5.497-0.341-10.176,3.803-10.523,9.268l-2.518,39.746 c-31.608,32.27-43.152,56.317-52.837,79.077l-17.788-22.969c15.545-19.447,14.322-47.972-3.687-65.98 c-14.929-14.929-37.086-18.317-55.308-10.184l-11.804-15.234c-3.354-4.328-9.581-5.119-13.91-1.765 c-4.328,3.354-5.119,9.581-1.765,13.91l11.358,14.658c-17.993,19.418-17.562,49.851,1.315,68.728 c9.666,9.666,22.359,14.498,35.057,14.498c8.1,0,16.198-1.978,23.512-5.913l24.073,31.084 c-8.811,19.39-20.441,39.473-47.201,66.233c-24.326,24.326-43.134,36.15-60.921,44.717l5.502-21.508 c1.356-5.305-1.844-10.705-7.148-12.063c-5.302-1.356-10.705,1.844-12.063,7.148l-9.35,36.54 c-24.307,10.249-49.732,21.679-84.844,56.791c-3.872,3.872-3.872,10.15,0,14.021c1.935,1.935,4.473,2.904,7.01,2.904 s5.075-0.968,7.01-2.904c33.682-33.682,56.784-43.398,81.244-53.685c19.332-8.13,39.174-16.487,63.868-36.465l17.042,11.779 c-8.753,18.417-5.527,41.154,9.695,56.376c9.666,9.666,22.361,14.498,35.057,14.498s25.392-4.833,35.057-14.498 c0.245-0.245,0.471-0.498,0.709-0.746l14.688,10.149c1.721,1.188,3.684,1.758,5.628,1.758c3.148,0,6.242-1.495,8.167-4.279 c3.112-4.505,1.983-10.68-2.521-13.793l-15.369-10.618c6.648-17.667,2.891-38.389-11.301-52.582 c-9.365-9.363-21.815-14.522-35.057-14.522c-12.208,0-23.737,4.393-32.801,12.414l-13.584-9.388 c2.709-2.534,5.469-5.193,8.299-8.023c13.879-13.879,24.052-26.242,31.92-37.623l41.727,3.1c0.25,0.018,0.498,0.028,0.744,0.028 c5.142,0,9.49-3.97,9.878-9.181c0.406-5.461-3.692-10.216-9.153-10.622l-31.509-2.341c5.881-10.847,10.142-20.963,14.339-30.943 c7.38-17.546,14.467-34.396,30.318-54.951l40.1,18.848c-3.877,16.219,0.496,34.027,13.127,46.658 c9.365,9.363,21.815,14.522,35.057,14.522c13.243,0,25.693-5.157,35.058-14.522h-0.001c1.684-1.684,3.228-3.473,4.635-5.343 l15.608,7.336c1.363,0.641,2.799,0.944,4.212,0.944c3.723,0,7.292-2.107,8.98-5.7c2.329-4.956,0.2-10.861-4.756-13.19 l-15.565-7.316c0.925-3.814,1.409-7.764,1.409-11.788c0-13.243-5.157-25.693-14.52-35.057 c-9.365-9.363-21.815-14.522-35.058-14.522c-13.242,0-25.692,5.157-35.057,14.522c-1.736,1.736-3.31,3.573-4.735,5.489 l-35.26-16.573c3.124-3.423,6.483-6.948,10.139-10.605C352.507,194.955,375.609,185.239,400.07,174.951z M377.667,95.285 c-11.599-11.599-11.599-30.472,0-42.07c5.799-5.799,13.416-8.698,21.035-8.698c7.618,0,15.235,2.899,21.035,8.698 c11.599,11.599,11.599,30.471,0.001,42.07C408.136,106.885,389.262,106.882,377.667,95.285z M213.82,263.522 c-11.599,11.599-30.47,11.599-42.071,0c-11.599-11.599-11.599-30.472,0-42.071c5.799-5.799,13.416-8.698,21.035-8.698 c7.618,0,15.235,2.899,21.036,8.698C225.419,233.05,225.419,251.922,213.82,263.522z M224.241,431.006 c5.618-5.618,13.089-8.713,21.035-8.713s15.417,3.095,21.035,8.713c11.599,11.599,11.599,30.471,0,42.07 c-11.597,11.597-30.471,11.597-42.07,0C212.642,461.477,212.642,442.605,224.241,431.006z M362.702,264.35 c5.618-5.618,13.087-8.713,21.034-8.713c7.948,0,15.417,3.095,21.036,8.714c5.618,5.618,8.713,13.089,8.713,21.035 c0,7.946-3.095,15.417-8.713,21.035h-0.001c-5.618,5.618-13.087,8.713-21.035,8.713c-7.946,0-15.415-3.095-21.034-8.713 C351.103,294.822,351.103,275.948,362.702,264.35z"></path> </g> </g> </g></svg>